<svg width="256" height="256" viewBox="0 0 256 256" fill="none" xmlns="http://www.w3.org/2000/svg">
  <g transform="translate(128 128)">
    <path d="M0 -84 A84 84 0 0 1 72.75 -42 L36.37 -21 A42 42 0 0 0 0 -42Z" fill="#2255D4"/>
    <path d="M72.75 -42 A84 84 0 0 1 72.75 42 L36.37 21 A42 42 0 0 0 36.37 -21Z" fill="#47A6FF"/>
    <path d="M72.75 42 A84 84 0 0 1 0 84 L0 42 A42 42 0 0 0 36.37 21Z" fill="#7AD8BF"/>
    <path d="M0 84 A84 84 0 0 1 -72.75 42 L-36.37 21 A42 42 0 0 0 0 42Z" fill="#BEDF69"/>
    <path d="M-72.75 42 A84 84 0 0 1 -72.75 -42 L-36.37 -21 A42 42 0 0 0 -36.37 21Z" fill="#3A76E8"/>
    <path d="M-72.75 -42 A84 84 0 0 1 0 -84 L0 -42 A42 42 0 0 0 -36.37 -21Z" fill="#2D8BFF"/>
  </g>
</svg>
